<?xml version="1.0" encoding="UTF-8" standalone="no"?>

<svg width="100%" height="100%" viewBox="0 0 969 1461" version="1.1" xmlns="http://www.w3.org/2000/svg" xmlns:xlink="http://www.w3.org/1999/xlink" xml:space="preserve" xmlns:serif="http://www.serif.com/" style="fill-rule:evenodd;clip-rule:evenodd;stroke-miterlimit:10;">
    <g transform="matrix(1,0,0,1,-142.728766,94.916434)">
        <g transform="matrix(1,0,0,1,626.9999,55.8317)">
            <path d="M0,1158.727L-315.692,1023.813C-315.692,1023.813 -302.968,1005.326 -284.672,982.146C-266.376,958.966 -241,930.617 -241,930.617L-279.692,922.206L-214.084,868.037L-250.019,770.688L-300.888,806.131L-280.028,730.766L-249.411,698.467L-272.626,706.206L-318.047,712.598L-223.168,640.262L-310.645,573.309L-258.832,573.309L-258.832,531.252L-241.673,555.477L-242.009,531.925L-333.523,380.187L-331.505,225.421L-289.785,190.094L-299.206,131.215L-190.196,0L-192.888,85.122L-152.85,155.439L-87.243,172.262L-117.523,222.056L-72.103,334.43L-88.252,404.411L-54.028,318.159L-26.439,398.907L23.804,372.215L52.626,315.467L70.458,376.028L72.103,334.43L117.523,222.056L87.243,172.262L152.851,155.439L192.888,85.122L190.196,0L299.206,131.215L289.785,190.094L331.505,225.421L333.523,380.187L242.009,531.925L241.673,555.477L258.832,531.252L258.832,573.309L310.645,573.309L223.168,640.262L318.047,712.598L272.626,706.206L249.411,698.467L280.028,730.766L300.888,806.131L251.094,767.776L214.646,866.515L279.692,922.206L241,930.617C241,930.617 274.657,969.609 283.453,980.584C292.249,991.559 315.692,1023.813 315.692,1023.813L0,1158.727Z" style="fill:rgb(29,29,27);fill-rule:nonzero;stroke:url(#_Linear1);stroke-width:30px;"></path>
        </g>
        <g transform="matrix(1,0,0,1,627,55.8317)">
            <path d="M0,1158.727L-315.692,1023.813C-315.692,1023.813 -302.968,1005.326 -284.672,982.146C-266.376,958.966 -241,930.617 -241,930.617L-279.692,922.206L-214.084,868.037L-250.019,770.688L-300.888,806.131L-280.028,730.766L-249.411,698.467L-272.626,706.206L-318.047,712.598L-223.168,640.262L-310.645,573.309L-258.832,573.309L-258.832,531.252L-241.673,555.477L-242.009,531.925L-333.523,380.187L-331.505,225.421L-289.785,190.094L-299.206,131.215L-190.196,0L-192.888,85.122L-152.85,155.439L-87.243,172.262L-117.523,222.056L-72.103,334.43L-88.252,404.411L-54.028,318.159L-26.439,398.907L23.804,372.215L52.626,315.467L70.458,376.028L72.103,334.43L117.523,222.056L87.243,172.262L152.85,155.439L192.888,85.122L190.196,0L299.206,131.215L289.785,190.094L331.505,225.421L333.523,380.187L242.009,531.925L241.673,555.477L258.832,531.252L258.832,573.309L310.645,573.309L223.168,640.262L318.047,712.598L272.626,706.206L249.411,698.467L280.028,730.766L300.888,806.131L251.094,767.776L214.646,866.515L279.692,922.206L241,930.617C241,930.617 274.657,969.609 283.453,980.584C292.249,991.559 315.692,1023.813 315.692,1023.813L0,1158.727Z" style="fill:rgb(29,29,27);fill-rule:nonzero;"></path>
        </g>
        <g transform="matrix(1,0,0,1,894.5,537.22)">
            <path d="M0,280.15L-26.57,268.71L-47.7,302.2L-93.79,372.18C-93.79,372.18 -160.82,411.65 -159.73,409.53C-158.65,407.41 -143.93,378.34 -143.93,378.34L-135.17,335.85L-113.38,304.29L-154.67,331.3L-145.17,333.91L-156.44,376.72L-200.85,413.99L-262.76,399.35L-262.76,382.61L-221.37,351.99L-201.1,327.27L-213.05,318.77L-267.5,342.99L-321.95,318.77L-333.9,327.27L-313.63,351.99L-272.24,382.61L-272.24,399.35L-334.15,413.99L-378.56,376.72L-389.83,333.91L-380.33,331.3L-421.62,304.29L-399.83,335.85L-391.07,378.34C-391.07,378.34 -376.35,407.41 -375.27,409.53C-374.18,411.65 -441.21,372.18 -441.21,372.18L-487.3,302.2L-508.43,268.71L-535,280.15L-532.31,250.88L-496.31,208.83L-529.29,206.47L-464.11,158.66L-454.02,171.74L-445.44,226.42L-484.14,203.87L-450.15,264.77L-381.86,267.29L-417.69,293.03L-418.66,295.16C-418.66,295.16 -377.53,284.2 -365.7,279.87C-352.75,275.58 -337.09,265.36 -337.09,265.36L-337.77,287.9L-320.52,258.71L-294.36,238.61L-317.5,241.05L-335.97,208.38L-346.45,140.58L-399.25,89.78L-395.55,135.87L-412.37,119.05L-444,122.45L-468.14,132.63L-483.45,111.1L-478.2,89.78L-474.61,75.22L-459.39,13.44L-434.43,55.13L-450.15,-33.24L-418.7,-89.93L-401.54,-6.66L-373.95,-51.41L-376.81,-17.26C-376.81,-17.26 -352.66,-57.4 -347.77,-68.41C-342.88,-79.41 -321.97,-133.84 -321.97,-133.84L-305.82,-72.77L-307.33,-65.03L-297.91,-23.99L-285.59,-60.74L-267.5,-73.62L-230.41,-92.37L-214.15,-133.84L-189.7,-52.56L-213.59,-22.84L-223.57,28.19L-198.34,-12.41L-157.85,-41.12L-134.07,-6.69L-118.37,-90.46L-85.96,-33.04L-100.13,53.07L-76.99,13.39L-60.9,75.2L-60.39,75.22L-56.8,89.78L-51.55,111.1L-66.86,132.63L-91,122.45L-122.63,119.05L-139.45,135.87L-135.75,89.78L-188.55,140.58L-199.03,208.38L-217.5,241.05L-240.64,238.61L-214.48,258.71L-197.23,287.9L-197.91,265.36C-197.91,265.36 -182.25,275.58 -169.3,279.87C-157.47,284.2 -116.34,295.16 -116.34,295.16L-117.31,293.03L-153.14,267.29L-84.85,264.77L-50.86,203.87L-89.56,226.42L-80.98,171.74L-70.89,158.66L-5.71,206.47L-38.69,208.83L-2.69,250.88L0,280.15Z" style="fill:rgb(245,251,255);fill-rule:nonzero;"></path>
        </g>
        <g transform="matrix(1,0,0,1,678.22,977.42)">
            <path d="M0,-18.84C0,-18.84 -5.19,-11.91 -12.11,-4.93C-19.03,2.05 -27.25,8.64 -27.25,8.64L-27.14,-3.7C-27.14,-3.7 -29.59,-1.15 -39.47,5.72C-49.36,12.59 -51.22,12.9 -51.22,12.9C-51.22,12.9 -53.08,12.59 -62.97,5.72C-72.85,-1.15 -75.3,-3.7 -75.3,-3.7L-75.19,8.64C-75.19,8.64 -83.41,2.05 -90.33,-4.93C-97.25,-11.91 -102.44,-18.84 -102.44,-18.84L-51.22,-31.74L0,-18.84Z" style="fill:rgb(245,251,255);fill-rule:nonzero;"></path>
        </g>
        <g transform="matrix(1,0,0,1,731.1,1045.21)">
            <path d="M0,11.44L-22.04,-23.88C-22.04,-23.88 -26.39,0.44 -29.44,11.78C-32.49,23.12 -41.55,48.62 -41.55,48.62L-57.87,10.77L-104.1,98.58L-150.33,10.77L-166.65,48.62C-166.65,48.62 -175.71,23.12 -178.76,11.78C-181.81,0.44 -186.16,-23.88 -186.16,-23.88L-208.2,11.44C-208.2,11.44 -215.07,-23.64 -210.72,-41.21C-206.38,-58.78 -187.17,-87.14 -187.17,-87.14L-123.75,-32.46L-118.87,-43.9L-104.1,-28.59L-89.33,-43.9L-84.45,-32.46L-21.03,-87.14C-21.03,-87.14 -1.82,-58.78 2.52,-41.21C6.87,-23.64 0,11.44 0,11.44" style="fill:rgb(228,27,30);fill-rule:nonzero;"></path>
        </g>
        <g transform="matrix(-0.754468,0.656337,0.656337,0.754468,610.918549,929.103677)">
            <path d="M-69.95,-3.662L-24.501,-3.662L-18.209,-48.674L-33.775,-14.323L-69.95,-3.662Z" style="fill:rgb(228,27,30);fill-rule:nonzero;"></path>
        </g>
        <g transform="matrix(1,0,0,1,847.3877,284.1122)">
            <path d="M0,258.841L70.757,140.873L58.995,36.911L6.953,0L-28.037,122.916L-53.832,48.448L-63.477,150.056L-32.299,200.748L-11.664,163.963L-8.523,217.57L0,258.841Z" style="fill:white;fill-rule:nonzero;"></path>
        </g>
        <g transform="matrix(1,0,0,1,405.5701,284.1122)">
            <path d="M0,258.841L-70.757,140.873L-58.995,36.911L-6.953,0L28.037,122.916L53.832,48.448L63.477,150.056L32.299,200.748L11.664,163.963L8.523,217.57L0,258.841Z" style="fill:white;fill-rule:nonzero;"></path>
        </g>
        <g transform="matrix(1,0,0,1,788.5537,775.9441)">
            <path d="M0,-74.86L-32.635,-49.29L-69.14,0L-67.794,0L-61.234,-3.701C-61.234,-3.701 -41.951,-4.158 -31.71,-6.981C-26.631,-8.382 -20.091,-12.43 -14.72,-18C-9.262,-23.66 -5.004,-30.875 -3.785,-36.505C-1.367,-47.674 -1.85,-67.626 -1.85,-67.626L0.505,-73.935L0,-74.86Z" style="fill:rgb(228,27,30);fill-rule:nonzero;"></path>
        </g>
        <g transform="matrix(1,0,0,1,469.1145,775.9441)">
            <path d="M0,-74.86L32.636,-49.29L69.14,0L67.794,0L61.234,-3.701C61.234,-3.701 41.951,-4.158 31.71,-6.981C26.631,-8.382 20.091,-12.43 14.72,-18C9.262,-23.66 5.004,-30.875 3.785,-36.505C1.367,-47.674 1.85,-67.626 1.85,-67.626L-0.505,-73.935L0,-74.86Z" style="fill:rgb(228,27,30);fill-rule:nonzero;"></path>
        </g>
        <g transform="matrix(1,0,0,1,706.2056,649.6912)">
            <path d="M0,132.075L42.841,71.29L104.523,25.757L67.514,20.598L32.523,46.168L46.575,-7.85L6.622,41.944L-3.304,97.627L-19.29,139.925L0,132.075Z" style="fill:rgb(228,27,30);fill-rule:nonzero;"></path>
        </g>
        <g transform="matrix(1,0,0,1,548.0491,649.6912)">
            <path d="M0,132.075L-42.841,71.29L-104.523,25.757L-67.514,20.598L-32.523,46.168L-46.575,-7.85L-6.622,41.944L3.304,97.627L19.29,139.925L0,132.075Z" style="fill:rgb(228,27,30);fill-rule:nonzero;"></path>
        </g>
        <g transform="matrix(1,0,0,1,706.2056,686.8872)">
            <path d="M0,94.879L42.841,34.094L70.49,13.684L57.421,17.944L67.514,0L39.252,18.617L24.449,39.253L23.776,16.374L10.094,43.515L4.262,75.814L0,94.879Z" style="fill:rgb(241,133,36);fill-rule:nonzero;"></path>
        </g>
        <g transform="matrix(1,0,0,1,548.0491,686.8872)">
            <path d="M0,94.879L-42.841,34.094L-70.49,13.684L-57.421,17.944L-67.514,0L-39.252,18.617L-24.449,39.253L-23.776,16.374L-10.093,43.515L-4.262,75.814L0,94.879Z" style="fill:rgb(241,133,36);fill-rule:nonzero;"></path>
        </g>
        <g transform="matrix(1,0,0,1,699.48,1034.96)">
            <path d="M0,-25.28C-1.1,-12.99 -8.08,13.25 -8.08,13.25L-27.93,-13L-72.48,41.68L-117.03,-13L-136.88,13.25C-136.88,13.25 -143.86,-12.99 -144.96,-25.28C-146.05,-37.57 -144.03,-66.96 -144.03,-66.96L-92.3,-28.49L-87.09,-33.52L-72.48,-18.34L-57.87,-33.52L-52.66,-28.49L-0.93,-66.96C-0.93,-66.96 1.09,-37.57 0,-25.28" style="fill:rgb(241,133,36);fill-rule:nonzero;"></path>
        </g>
        <g transform="matrix(1,0,0,1,579.79,1028.51)">
            <path d="M0,81.08L47.21,160.82L-240.99,42.74L-163.64,-52.81L-184.71,-61.91L-124.48,-79.74L-100.93,-53.16L-54.16,67.96L-39.84,41.16L-14.46,107.32L0,81.08Z" style="fill:rgb(245,251,255);fill-rule:nonzero;"></path>
        </g>
        <g transform="matrix(1,0,0,1,915.2,1066.85)">
            <path d="M0,4.4L-288.2,122.48L-240.99,42.74L-226.53,68.98L-201.15,2.82L-186.83,29.62L-140.06,-91.5L-116.51,-118.08L-56.28,-100.25L-77.35,-91.15L0,4.4Z" style="fill:rgb(245,251,255);fill-rule:nonzero;"></path>
        </g>
        <g transform="matrix(1,0,0,1,849.6807,324.743)">
            <path d="M0,-173.944L39.954,-129.576L21.869,-112.71C21.869,-112.71 24.224,-104.636 30.617,-103.626C37.009,-102.617 43.474,-105.338 43.474,-105.338L22.997,-44.299L2.355,-62.243L-19.514,0L-27.925,-53.159L-53.159,-30.28L-19.85,-104.972L-15.477,-80.748C-15.477,-80.748 -0.023,-99.349 5.383,-119.439C10.789,-139.53 0,-173.944 0,-173.944" style="fill:rgb(228,27,30);fill-rule:nonzero;"></path>
        </g>
        <g transform="matrix(1,0,0,1,872.6776,267.0978)">
            <path d="M0,13.346L1.564,-29.327L-11.389,-23.776L-13.24,-44.299L-32.417,-0.224L-38.81,-14.86L-48.052,22.626L-42.511,57.645L-20.642,-4.598L0,13.346Z" style="fill:rgb(241,133,36);fill-rule:nonzero;"></path>
        </g>
        <g transform="matrix(1,0,0,1,402.9735,324.743)">
            <path d="M0,-173.944L-39.954,-129.576L-21.869,-112.71C-21.869,-112.71 -24.224,-104.636 -30.617,-103.626C-37.009,-102.617 -43.474,-105.338 -43.474,-105.338L-22.997,-44.299L-2.355,-62.243L19.514,0L27.925,-53.159L53.159,-30.28L19.85,-104.972L15.477,-80.748C15.477,-80.748 0.023,-99.349 -5.383,-119.439C-10.789,-139.53 0,-173.944 0,-173.944" style="fill:rgb(228,27,30);fill-rule:nonzero;"></path>
        </g>
        <g transform="matrix(1,0,0,1,379.9767,267.0978)">
            <path d="M0,13.346L-1.564,-29.327L11.389,-23.776L13.24,-44.299L32.417,-0.224L38.81,-14.86L48.052,22.626L42.511,57.645L20.642,-4.598L0,13.346Z" style="fill:rgb(241,133,36);fill-rule:nonzero;"></path>
        </g>
    </g>
    <defs>
        <linearGradient id="_Linear1" x1="0" y1="0" x2="1" y2="0" gradientUnits="userSpaceOnUse" gradientTransform="matrix(745.509,-0,0,745.509,-372.7549,565.9293)"><stop offset="0" style="stop-color:rgb(230,47,32);stop-opacity:1"></stop><stop offset="1" style="stop-color:rgb(254,214,22);stop-opacity:1"></stop></linearGradient>
    </defs>
</svg>