<?xml version="1.0" encoding="UTF-8" standalone="no"?><!DOCTYPE svg PUBLIC "-//W3C//DTD SVG 1.1//EN" "http://www.w3.org/Graphics/SVG/1.1/DTD/svg11.dtd"><svg width="100%" height="100%" viewBox="0 0 249 62" version="1.1" xmlns="http://www.w3.org/2000/svg" xmlns:xlink="http://www.w3.org/1999/xlink" xml:space="preserve" xmlns:serif="http://www.serif.com/" style="fill-rule:evenodd;clip-rule:evenodd;stroke-linejoin:round;stroke-miterlimit:2;"><path id="FUZZLER" d="M225.686,39.714c-0.933,2.308 -2.617,3.971 -5.053,4.989l0,0.267l7.119,14.912c0.399,1.07 0.022,1.605 -1.131,1.605l-5.389,0c-0.798,0 -1.375,-0.089 -1.73,-0.267c-0.355,-0.178 -0.643,-0.557 -0.865,-1.137l-6.654,-14.444l-4.458,0c-0.532,0 -0.798,0.245 -0.798,0.736l0,13.708c0,0.936 -0.466,1.404 -1.397,1.404l-5.656,0c-0.931,0 -1.397,-0.468 -1.397,-1.404l0,-40.189c0,-0.936 0.466,-1.404 1.397,-1.404l15.835,0c0.906,0 1.76,0.066 2.563,0.197c1.841,-1.13 5.793,-3.718 8.457,-6.621c4.641,-5.058 8.792,-12.066 8.792,-12.066c0,0 6.296,6.096 7.614,11.706c1.12,4.769 -2.706,9.19 -2.706,9.19l7.821,-3.826c0,0 -0,6.701 -3.521,11.513c-2.297,3.139 -8.654,5.126 -8.654,5.126l8.397,3.115c0,0 -4.221,2.66 -8.817,3.325c-4,0.579 -8.262,-0.134 -9.769,-0.434Zm-18.227,-0.896l6.52,0c1.419,0 2.462,-0.301 3.127,-0.903c0.665,-0.602 0.998,-1.571 0.998,-2.909l0,-5.216c0,-1.382 -0.333,-2.385 -0.998,-3.009c-0.665,-0.624 -1.708,-0.936 -3.127,-0.936l-6.52,0c-0.488,0 -0.732,0.245 -0.732,0.736l0,11.502c0,0.49 0.244,0.736 0.732,0.736Zm-200.405,22.669l-5.656,0c-0.931,0 -1.397,-0.468 -1.397,-1.404l0,-40.189c0,-0.936 0.466,-1.404 1.397,-1.404l21.225,0c0.887,0 1.331,0.468 1.331,1.404l0,4.547c0,0.936 -0.444,1.404 -1.331,1.404l-13.374,0c-0.532,0 -0.798,0.245 -0.798,0.736l0,10.365c0,0.535 0.266,0.802 0.798,0.802l11.378,0c0.931,0 1.397,0.468 1.397,1.404l0,4.48c0,0.981 -0.466,1.471 -1.397,1.471l-11.378,0c-0.532,0 -0.798,0.245 -0.798,0.736l0,14.243c0,0.936 -0.466,1.404 -1.397,1.404Zm44.778,-42.998l5.589,0c0.976,0 1.464,0.446 1.464,1.337l0,30.76c0,3.477 -0.965,6.163 -2.894,8.058c-1.93,1.895 -4.624,2.842 -8.084,2.842l-7.319,0c-3.504,0 -6.21,-0.936 -8.117,-2.809c-1.907,-1.872 -2.861,-4.569 -2.861,-8.091l0,-30.694c0,-0.936 0.466,-1.404 1.397,-1.404l5.656,0c0.931,0 1.397,0.468 1.397,1.404l0,30.292c0,1.427 0.299,2.441 0.898,3.043c0.599,0.602 1.586,0.903 2.961,0.903l4.591,0c1.419,0 2.429,-0.301 3.027,-0.903c0.599,-0.602 0.898,-1.616 0.898,-3.043l0,-30.292c0,-0.936 0.466,-1.404 1.397,-1.404Zm14.239,41.593l0,-4.012c0,-1.471 0.288,-2.563 0.865,-3.277l17.632,-26.146l0,-0.267l-15.902,0c-0.931,0 -1.397,-0.468 -1.397,-1.404l0,-5.082c0,-0.936 0.466,-1.404 1.397,-1.404l23.62,0c0.887,0 1.331,0.468 1.331,1.404l0,5.751c0,1.337 -0.333,2.497 -0.998,3.477l-16.567,24.207l0,0.267l16.9,0c0.887,0 1.331,0.424 1.331,1.271l0,5.082c0,1.025 -0.444,1.538 -1.331,1.538l-25.483,0c-0.931,0 -1.397,-0.468 -1.397,-1.404Zm34.665,0l0,-4.012c0,-1.471 0.288,-2.563 0.865,-3.277l17.632,-26.146l0,-0.267l-15.902,0c-0.931,0 -1.397,-0.468 -1.397,-1.404l0,-5.082c0,-0.936 0.466,-1.404 1.397,-1.404l23.62,0c0.887,0 1.331,0.468 1.331,1.404l0,5.751c0,1.337 -0.333,2.497 -0.998,3.477l-16.567,24.207l0,0.267l16.9,0c0.887,0 1.331,0.424 1.331,1.271l0,5.082c0,1.025 -0.444,1.538 -1.331,1.538l-25.483,0c-0.931,0 -1.397,-0.468 -1.397,-1.404Zm59.084,1.404l-21.89,0c-0.931,0 -1.397,-0.468 -1.397,-1.404l0,-40.189c0,-0.936 0.466,-1.404 1.397,-1.404l5.656,0c0.931,0 1.397,0.468 1.397,1.404l0,33.435c0,0.49 0.266,0.736 0.798,0.736l14.039,0c0.887,0 1.331,0.49 1.331,1.471l0,4.547c0,0.936 -0.444,1.404 -1.331,1.404Zm29.741,0l-21.757,0c-0.931,0 -1.397,-0.468 -1.397,-1.404l0,-40.189c0,-0.936 0.466,-1.404 1.397,-1.404l21.757,0c0.887,0 1.331,0.468 1.331,1.404l0,4.547c0,0.936 -0.444,1.404 -1.331,1.404l-13.906,0c-0.532,0 -0.798,0.245 -0.798,0.736l0,8.693c0,0.49 0.266,0.736 0.798,0.736l11.378,0c0.931,0 1.397,0.468 1.397,1.404l0,4.547c0,0.936 -0.466,1.404 -1.397,1.404l-11.378,0c-0.532,0 -0.798,0.245 -0.798,0.736l0,9.295c0,0.49 0.266,0.736 0.798,0.736l13.906,0c0.887,0 1.331,0.468 1.331,1.404l0,4.547c0,0.936 -0.444,1.404 -1.331,1.404Z"/></svg>